# xmcd CD database file
#
# Track frame offsets:
#	150
#	40239
#	83445
#	119504
#	154812
#	197246
#
# Disc length: 3198 seconds
#
# Revision: 0
# Processed by: cddbd v1.5.2PL0 Copyright (c) Steve Scherf et al.
# Submitted via: CDex 1.51
#
DISCID=460c7c06
DTITLE=Benny Reid - Findings
DYEAR=2007
DGENRE=Jazz
TTITLE0=Destiny?
TTITLE1=Transient Melody
TTITLE2=Findings: A Quest For Peace
TTITLE3=Waves of Red
TTITLE4=Dancing With My Father
TTITLE5=Legend
EXTD=YEAR: 2007
EXTT0=
EXTT1=
EXTT2=
EXTT3=
EXTT4=
EXTT5=
PLAYORDER=
